<svg width="650" height="235" viewBox="0 0 650 235" fill="none" xmlns="http://www.w3.org/2000/svg">
<path d="M342.968 174.268H282.533C273.794 174.268 266.133 172.168 259.551 167.97C252.969 163.772 247.862 158.098 244.23 150.949C240.597 143.801 238.782 135.858 238.782 127.121C238.782 118.383 240.597 110.498 244.23 103.462C247.862 96.4263 252.969 90.8095 259.551 86.6116C266.133 82.4137 273.794 80.314 282.533 80.314H342.968V97.5047H282.533C277.086 97.5047 272.376 98.8664 268.403 101.59C264.431 104.2 261.366 107.717 259.211 112.142C257.055 116.568 255.976 121.561 255.976 127.121C255.976 132.68 257.055 137.731 259.211 142.269C261.366 146.807 264.431 150.439 268.403 153.162C272.376 155.772 277.086 157.077 282.533 157.077H342.968V174.268ZM470.423 127.291C470.423 135.914 468.607 143.801 464.976 150.949C461.456 157.985 456.464 163.658 449.995 167.97C443.526 172.168 435.978 174.268 427.353 174.268H397.732C389.105 174.268 381.502 172.168 374.92 167.97C368.451 163.658 363.399 157.985 359.769 150.949C356.249 143.801 354.491 135.914 354.491 127.291C354.491 118.667 356.249 110.838 359.769 103.802C363.399 96.7667 368.451 91.1499 374.92 86.952C381.502 82.7541 389.105 80.6544 397.732 80.6544H427.353C435.978 80.6544 443.526 82.7541 449.995 86.952C456.464 91.1499 461.456 96.7667 464.976 103.802C468.607 110.838 470.423 118.667 470.423 127.291ZM453.4 127.291C453.4 121.844 452.378 116.851 450.335 112.313C448.292 107.774 445.284 104.2 441.313 101.59C437.453 98.8664 432.801 97.5047 427.353 97.5047H397.732C392.284 97.5047 387.573 98.8664 383.602 101.59C379.742 104.2 376.735 107.774 374.579 112.313C372.537 116.851 371.515 121.844 371.515 127.291C371.515 132.737 372.537 137.731 374.579 142.269C376.735 146.807 379.742 150.439 383.602 153.162C387.573 155.885 392.284 157.247 397.732 157.247H427.353C432.801 157.247 437.453 155.885 441.313 153.162C445.284 150.439 448.292 146.807 450.335 142.269C452.378 137.731 453.4 132.737 453.4 127.291ZM506.136 174.268H489.283V80.6544H506.136V174.268ZM616.649 174.268C616.649 166.778 615.174 159.63 612.222 152.822C609.386 145.9 605.527 139.488 600.646 133.588C595.767 127.688 590.319 122.355 584.303 117.589C578.289 112.823 572.104 108.851 565.747 105.675C559.506 102.498 553.49 100.228 547.702 98.8664V174.268H530.678V80.6544H539.871V80.8246C546 81.165 552.469 82.5266 559.278 84.9095C566.202 87.1794 573.125 90.3561 580.047 94.441C586.971 98.526 593.554 103.292 599.795 108.738C606.151 114.185 611.769 120.255 616.649 126.95V80.6544H633.672V174.268H616.649Z" fill="#F1F1F1"/>
<path d="M137.273 139.978L44.4177 234.5H1.1925L115.843 117.85L116.187 117.5L115.843 117.15L1.1925 0.5H44.4178L274.408 234.5H231.182L137.986 139.978L137.629 139.616L137.273 139.978ZM231.182 0.5H274.405L171.697 104.702L150.254 82.921L231.182 0.5Z" fill="#2F9E13" stroke="#2E7D31"/>
</svg>
