<svg width="650" height="235" viewBox="0 0 650 235" fill="none" xmlns="http://www.w3.org/2000/svg">
<g clip-path="url(#clip0_42_388)">
<path d="M342.968 174.268L282.533 174.268C273.794 174.268 266.133 172.168 259.551 167.97C252.969 163.772 247.862 158.098 244.23 150.949C240.597 143.801 238.782 135.858 238.782 127.121C238.782 118.383 240.597 110.498 244.23 103.462C247.862 96.4263 252.969 90.8096 259.551 86.6117C266.133 82.4138 273.794 80.3141 282.533 80.314L342.968 80.314L342.968 97.5048L282.533 97.5048C277.086 97.5048 272.376 98.8665 268.403 101.59C264.431 104.2 261.366 107.717 259.211 112.143C257.055 116.568 255.976 121.561 255.976 127.121C255.976 132.68 257.055 137.731 259.211 142.269C261.366 146.807 264.431 150.439 268.403 153.162C272.376 155.772 277.086 157.077 282.533 157.077L342.968 157.077L342.968 174.268ZM470.423 127.291C470.423 135.914 468.607 143.801 464.976 150.949C461.457 157.985 456.464 163.658 449.995 167.97C443.526 172.168 435.978 174.268 427.353 174.268L397.732 174.268C389.105 174.268 381.502 172.168 374.92 167.97C368.451 163.658 363.399 157.985 359.769 150.949C356.249 143.801 354.491 135.914 354.491 127.291C354.491 118.668 356.249 110.838 359.769 103.802C363.399 96.7667 368.451 91.1499 374.92 86.9521C381.502 82.7542 389.105 80.6544 397.732 80.6544L427.353 80.6544C435.978 80.6544 443.526 82.7542 449.995 86.952C456.464 91.1499 461.457 96.7667 464.976 103.802C468.607 110.838 470.423 118.668 470.423 127.291ZM453.4 127.291C453.4 121.844 452.378 116.851 450.335 112.313C448.292 107.774 445.284 104.2 441.313 101.59C437.453 98.8664 432.801 97.5048 427.353 97.5048L397.732 97.5048C392.284 97.5048 387.573 98.8665 383.602 101.59C379.742 104.2 376.735 107.774 374.579 112.313C372.537 116.851 371.515 121.844 371.515 127.291C371.515 132.737 372.537 137.731 374.579 142.269C376.735 146.807 379.742 150.439 383.602 153.162C387.573 155.885 392.284 157.247 397.732 157.247L427.353 157.247C432.801 157.247 437.453 155.885 441.313 153.162C445.284 150.439 448.292 146.807 450.335 142.269C452.378 137.731 453.4 132.737 453.4 127.291ZM506.136 174.268L489.283 174.268L489.283 80.6544L506.136 80.6544L506.136 174.268ZM616.649 174.268C616.649 166.778 615.174 159.63 612.222 152.822C609.386 145.9 605.528 139.488 600.646 133.588C595.767 127.688 590.319 122.355 584.303 117.589C578.289 112.823 572.104 108.851 565.748 105.675C559.506 102.498 553.49 100.228 547.702 98.8664L547.702 174.268L530.678 174.268L530.678 80.6544L539.871 80.6544L539.871 80.8246C546 81.165 552.469 82.5267 559.278 84.9096C566.202 87.1795 573.125 90.3561 580.047 94.4411C586.971 98.526 593.554 103.292 599.795 108.738C606.151 114.185 611.769 120.255 616.649 126.95L616.649 80.6544L633.672 80.6544L633.673 174.268L616.649 174.268Z" fill="#F1F1F1"/>
<path d="M275.6 235L230.973 235L137.63 140.329L44.6275 235L4.10887e-05 235L115.486 117.5L0 0.000106812L44.6274 9.90086e-05L275.6 235ZM275.6 5.86241e-05L171.696 105.414L149.553 82.9215L230.973 6.6427e-05L275.6 5.86241e-05Z" fill="#F1F1F1"/>
</g>
<defs>
<clipPath id="clip0_42_388">
<rect width="650" height="235" fill="white"/>
</clipPath>
</defs>
</svg>
